<svg xmlns="http://www.w3.org/2000/svg" width="27.868" height="27.624" viewBox="0 0 27.868 27.624">
  <g id="Group_39" data-name="Group 39" transform="translate(-153.296 -4294.221)">
    <circle id="Ellipse_4" data-name="Ellipse 4" cx="12.861" cy="12.861" r="12.861" transform="translate(153.296 4296.123)" fill="#5cb749"/>
    <path id="Path_27" data-name="Path 27" d="M165.17,4309.171l.789-.861c1.951-2.124,3.879-4.27,5.851-6.376,1.555-1.66,3.171-3.26,4.874-4.768a14.445,14.445,0,0,1,2.224-1.744c.72-.421,1.468-.795,2.2-1.19a.2.2,0,0,1,.04-.011.187.187,0,0,1-.053.2c-1.652,1.874-3.311,3.742-4.951,5.627-1.469,1.689-2.846,3.452-4.2,5.233-1.48,1.946-2.847,3.97-4.171,6.025a31.035,31.035,0,0,1-2.068,2.859c-.263.321-.264.3-.679.329a.686.686,0,0,1-.683-.339,32.129,32.129,0,0,1-1.947-3.118c-.931-1.686-1.844-3.381-2.768-5.071a.109.109,0,0,1,.027-.158c.184-.178.36-.365.546-.541a2.517,2.517,0,0,1,1.2-.541,5.546,5.546,0,0,1,1.354-.106c.278,0,.557,0,.836,0a.145.145,0,0,1,.168.125q.674,2.136,1.354,4.271C165.13,4309.06,165.145,4309.1,165.17,4309.171Z" fill="#fff"/>
  </g>
</svg>
