<svg xmlns="http://www.w3.org/2000/svg" width="55.893" height="52.588" viewBox="0 0 55.893 52.588">
  <path id="Path_37" data-name="Path 37" d="M845.192,3011.228c.71-.774,1.377-1.5,2.046-2.231,5.06-5.509,10.06-11.073,15.173-16.533,4.032-4.305,8.221-8.454,12.639-12.365a37.51,37.51,0,0,1,5.765-4.522c1.868-1.092,3.808-2.062,5.716-3.084a.531.531,0,0,1,.1-.031.49.49,0,0,1-.137.531c-4.284,4.859-8.586,9.7-12.838,14.59-3.808,4.379-7.378,8.952-10.892,13.57-3.839,5.047-7.383,10.294-10.817,15.622a80.4,80.4,0,0,1-5.362,7.415c-.682.831-.685.771-1.762.852a1.779,1.779,0,0,1-1.77-.879,83.261,83.261,0,0,1-5.047-8.085c-2.415-4.371-4.782-8.768-7.178-13.15a.281.281,0,0,1,.069-.41c.478-.461.933-.946,1.416-1.4a6.519,6.519,0,0,1,3.113-1.4,14.3,14.3,0,0,1,3.509-.274c.722.006,1.445.013,2.167-.006a.378.378,0,0,1,.437.323q1.747,5.541,3.512,11.077C845.089,3010.942,845.129,3011.049,845.192,3011.228Z" transform="translate(-830.772 -2972.462)" fill="#fff"/>
</svg>
